<svg width="20" height="20" viewBox="0 0 20 20" fill="none" xmlns="http://www.w3.org/2000/svg">
<g clip-path="url(#clip0_2376_5734)">
<path fill-rule="evenodd" clip-rule="evenodd" d="M3.98959 3.98959C5.58365 2.39553 7.74566 1.5 10 1.5C12.2543 1.5 14.4163 2.39553 16.0104 3.98959C17.6045 5.58365 18.5 7.74566 18.5 10C18.5 11.1162 18.2801 12.2215 17.853 13.2528C17.4258 14.2841 16.7997 15.2211 16.0104 16.0104C15.2211 16.7997 14.2841 17.4258 13.2528 17.853C12.2215 18.2801 11.1162 18.5 10 18.5C8.88376 18.5 7.77846 18.2801 6.74719 17.853C5.71592 17.4258 4.77889 16.7997 3.98959 16.0104C3.20029 15.2211 2.57419 14.2841 2.14702 13.2528C1.71986 12.2215 1.5 11.1162 1.5 10C1.5 7.74566 2.39553 5.58365 3.98959 3.98959ZM10 3.5C8.27609 3.5 6.62279 4.18482 5.40381 5.40381C4.18482 6.62279 3.5 8.27609 3.5 10C3.5 10.8536 3.66813 11.6988 3.99478 12.4874C4.32144 13.2761 4.80022 13.9926 5.40381 14.5962C6.00739 15.1998 6.72394 15.6786 7.51256 16.0052C8.30117 16.3319 9.14641 16.5 10 16.5C10.8536 16.5 11.6988 16.3319 12.4874 16.0052C13.2761 15.6786 13.9926 15.1998 14.5962 14.5962C15.1998 13.9926 15.6786 13.2761 16.0052 12.4874C16.3319 11.6988 16.5 10.8536 16.5 10C16.5 8.27609 15.8152 6.62279 14.5962 5.40381C13.3772 4.18482 11.7239 3.5 10 3.5Z" fill="#D51E25"/>
<path fill-rule="evenodd" clip-rule="evenodd" d="M10 5.66663C10.5523 5.66663 11 6.11434 11 6.66663V9.99996C11 10.5522 10.5523 11 10 11C9.44772 11 9 10.5522 9 9.99996V6.66663C9 6.11434 9.44772 5.66663 10 5.66663Z" fill="#D51E25"/>
<path fill-rule="evenodd" clip-rule="evenodd" d="M9 13.3334C9 12.7811 9.44772 12.3334 10 12.3334H10.0083C10.5606 12.3334 11.0083 12.7811 11.0083 13.3334C11.0083 13.8857 10.5606 14.3334 10.0083 14.3334H10C9.44772 14.3334 9 13.8857 9 13.3334Z" fill="#D51E25"/>
</g>
<defs>
<clipPath id="clip0_2376_5734">
<rect width="20" height="20" fill="white"/>
</clipPath>
</defs>
</svg>
