<svg width="294" height="37" viewBox="0 0 294 37" fill="none" xmlns="http://www.w3.org/2000/svg">
<g clip-path="url(#clip0_1549_67120)">
<path d="M15.4654 32.1248V7.79251C15.4654 7.2992 15.0654 6.89922 14.5721 6.89922H4.0125C2.81255 6.89922 1.82593 6.04592 1.82593 4.84597C1.82593 3.64602 2.81255 2.79272 4.0125 2.79272H14.5721C17.4786 2.79272 19.8118 5.12596 19.8118 8.0325V32.1515C19.8118 33.3114 18.8785 34.2981 17.6653 34.2981C16.452 34.2981 15.4654 33.3114 15.4654 32.1515M22.7584 6.89922C21.5451 6.89922 20.5585 6.04592 20.5585 4.84597C20.5585 3.64602 21.5451 2.79272 22.7584 2.79272H31.2647C32.478 2.79272 33.4513 3.64602 33.4513 4.84597C33.4513 6.04592 32.4646 6.89922 31.2647 6.89922H22.7584Z" fill="#231F20"/>
<path d="M61.3166 33.0715L48.7838 7.07262C48.5571 6.67263 48.1172 6.40598 47.6638 6.40598C47.2105 6.40598 46.8105 6.67263 46.5839 7.07262L34.0111 33.0715C33.4778 34.1515 32.1712 34.5915 31.1045 34.0581C30.0246 33.5248 29.5846 32.2182 30.1179 31.1516L42.6907 5.43268C43.624 3.51276 45.5573 2.33948 47.6505 2.33948C49.7438 2.33948 51.7703 3.55277 52.6636 5.47269L65.1964 31.1516C65.8231 32.4449 64.9698 34.2848 63.2765 34.2848C62.4766 34.2848 61.6633 33.8448 61.3033 33.0849M44.864 22.9119C44.864 21.2987 45.9306 20.2721 47.6772 20.2721C49.4238 20.2721 50.4904 21.2987 50.4904 22.9119C50.4904 24.5252 49.4104 25.5518 47.6772 25.5518C45.9439 25.5518 44.864 24.5252 44.864 22.9119Z" fill="#231F20"/>
<path d="M67.463 18.2988C67.463 8.19252 75.0227 2.32611 85.1289 2.32611C90.3687 2.32611 94.7019 3.84605 98.0084 6.80592C98.9017 7.60589 99.0884 8.9525 98.2751 9.84579C97.4751 10.7391 95.9951 10.6058 95.1018 9.8058C92.6353 7.61922 89.2488 6.44593 85.1289 6.44593C76.4493 6.44593 71.7962 11.7257 71.7962 18.2988C71.7962 25.8184 77.4359 30.1516 85.1289 30.1516C88.6621 30.1516 91.5687 29.3516 93.9819 27.645C94.2486 27.4717 94.3819 27.1917 94.3819 26.9251V20.392H83.1024C81.9424 20.392 80.9558 19.5387 80.9558 18.3388C80.9558 17.1388 81.9424 16.2855 83.1024 16.2855H96.5285C97.7417 16.2855 98.7284 17.2188 98.7284 18.4321V26.9384C98.7284 32.0849 90.982 34.1914 85.1289 34.2714C75.6493 34.4448 67.463 28.365 67.463 18.2988Z" fill="#231F20"/>
<path d="M135.194 33.0715L122.661 7.07262C122.434 6.67263 121.994 6.40598 121.541 6.40598C121.088 6.40598 120.688 6.67263 120.461 7.07262L107.888 33.0715C107.355 34.1515 106.048 34.5915 104.982 34.0581C103.902 33.5248 103.462 32.2182 103.995 31.1516L116.568 5.43268C117.501 3.51276 119.434 2.33948 121.528 2.33948C123.621 2.33948 125.648 3.55277 126.541 5.47269L139.074 31.1516C139.7 32.4449 138.847 34.2848 137.154 34.2848C136.354 34.2848 135.54 33.8448 135.18 33.0849M118.728 22.9119C118.728 21.2987 119.794 20.2721 121.541 20.2721C123.288 20.2721 124.354 21.2987 124.354 22.9119C124.354 24.5252 123.274 25.5518 121.541 25.5518C119.808 25.5518 118.728 24.5252 118.728 22.9119Z" fill="#231F20"/>
<path d="M149.966 33.8714C147.06 33.8714 144.687 31.4982 144.687 28.645V8.01919C144.687 5.15265 147.06 2.77941 149.966 2.77941H158.113C169.299 2.68608 176.325 6.71258 176.325 18.2988C176.325 29.8849 169.299 33.9514 158.113 33.8714H149.966ZM149.966 6.89925C149.473 6.89925 149.033 7.29923 149.033 7.79254V28.8717C149.033 29.365 149.473 29.7649 149.966 29.7649H158.113C166.966 29.4983 171.979 27.525 171.979 18.3121C171.979 9.09915 166.966 7.1659 158.113 6.89925H149.966Z" fill="#231F20"/>
<path d="M188.098 33.8714C185.192 33.8714 182.819 31.4982 182.819 28.645V8.01919C182.819 5.15265 185.192 2.77941 188.098 2.77941H196.245C207.431 2.68608 214.457 6.71258 214.457 18.2988C214.457 29.8849 207.431 33.9514 196.245 33.8714H188.098ZM188.098 6.89925C187.605 6.89925 187.152 7.29923 187.152 7.79254V28.8717C187.152 29.365 187.605 29.7649 188.098 29.7649H196.245C205.111 29.4983 210.111 27.525 210.111 18.3121C210.111 9.09915 205.098 7.1659 196.245 6.89925H188.098Z" fill="#231F20"/>
<path d="M218.923 18.2988C218.923 8.00587 227.296 2.32611 236.509 2.32611C246.309 2.32611 254.042 8.45918 254.042 18.2988C254.042 28.1383 247.015 34.2714 236.509 34.2714C226.71 34.2714 218.923 28.365 218.923 18.2988ZM223.256 18.2988C223.256 25.3251 228.35 30.1516 236.496 30.1516C244.642 30.1516 249.695 25.3251 249.695 18.2988C249.695 11.2724 244.642 6.44593 236.496 6.44593C228.35 6.44593 223.256 11.2724 223.256 18.2988Z" fill="#231F20"/>
<path d="M265.815 33.8714C262.908 33.8714 260.535 31.4982 260.535 28.645V8.01919C260.535 5.15265 262.908 2.77941 265.815 2.77941H273.961C285.147 2.68608 292.174 6.71258 292.174 18.2988C292.174 29.8849 285.147 33.9514 273.961 33.8714H265.815ZM265.815 6.89925C265.322 6.89925 264.868 7.29923 264.868 7.79254V28.8717C264.868 29.365 265.322 29.7649 265.815 29.7649H273.961C282.828 29.4983 287.827 27.525 287.827 18.3121C287.827 9.09915 282.814 7.1659 273.961 6.89925H265.815Z" fill="#231F20"/>
</g>
<defs>
<clipPath id="clip0_1549_67120">
<rect width="290.348" height="31.972" fill="white" transform="translate(1.82605 2.32611)"/>
</clipPath>
</defs>
</svg>
