<svg width="16" height="16" viewBox="0 0 16 16" fill="none" xmlns="http://www.w3.org/2000/svg">
<g clip-path="url(#clip0_2319_3563)">
<g clip-path="url(#clip1_2319_3563)">
<path fill-rule="evenodd" clip-rule="evenodd" d="M8.00004 2.33337C8.55233 2.33337 9.00004 2.78109 9.00004 3.33337V7.00004H12.6667C13.219 7.00004 13.6667 7.44776 13.6667 8.00004C13.6667 8.55233 13.219 9.00004 12.6667 9.00004H9.00004V12.6667C9.00004 13.219 8.55233 13.6667 8.00004 13.6667C7.44776 13.6667 7.00004 13.219 7.00004 12.6667V9.00004H3.33337C2.78109 9.00004 2.33337 8.55233 2.33337 8.00004C2.33337 7.44776 2.78109 7.00004 3.33337 7.00004H7.00004V3.33337C7.00004 2.78109 7.44776 2.33337 8.00004 2.33337Z" fill="white"/>
</g>
</g>
<defs>
<clipPath id="clip0_2319_3563">
<rect width="16" height="16" fill="white"/>
</clipPath>
<clipPath id="clip1_2319_3563">
<rect width="16" height="16" fill="white"/>
</clipPath>
</defs>
</svg>
